<svg width="48" height="47" fill="none" xmlns="http://www.w3.org/2000/svg"><g clip-path="url(#a)"><path d="M43.322 24.13c5.444-8.068 5.098-17.788-.772-21.71-5.87-3.922-15.04-.56-20.484 7.508-5.444 8.069-5.098 17.789.772 21.71 5.87 3.923 15.041.561 20.484-7.507z" fill="#6F4E37"/><path d="M28.46 33.948c-2.202 0-4.246-.59-5.994-1.757-3.021-2.019-4.77-5.51-4.923-9.829-.151-4.239 1.259-8.786 3.969-12.803 2.71-4.017 6.406-7.037 10.405-8.503 4.075-1.494 7.984-1.205 11.005.814 3.022 2.018 4.77 5.509 4.923 9.828.151 4.24-1.258 8.787-3.969 12.804-2.71 4.018-6.406 7.038-10.405 8.504a14.595 14.595 0 0 1-5.011.942zm8.458-32.504c-4.92 0-10.529 3.267-14.298 8.854-5.23 7.752-4.965 17.078.59 20.79 5.555 3.711 14.328.425 19.558-7.327s4.965-17.078-.59-20.79c-1.551-1.036-3.354-1.527-5.26-1.527z" fill="#000"/><path d="m24.354 32.98-1.058-1.532c4.506-3.083 7.072-5.94 8.58-9.554.61-1.458.955-2.959 1.322-4.548.327-1.416.664-2.88 1.211-4.414 1.643-4.608 4.357-7.694 7.925-10.91l1.255 1.379c-3.36 3.026-5.906 5.91-7.419 10.153-.51 1.432-.836 2.843-1.15 4.208-.385 1.668-.749 3.243-1.417 4.845-1.636 3.916-4.488 7.116-9.249 10.373z" fill="#963"/><path d="m22.957 32.037-.827-1.206c3.775-2.564 6.378-5.312 7.957-8.4.973-1.901 1.91-5.021 2.463-7.307.704-2.908 1.248-4.598 2.611-6.921a24.51 24.51 0 0 1 2.618-3.598 25.31 25.31 0 0 1 3.45-3.273l.908 1.148a23.847 23.847 0 0 0-3.25 3.083 23.001 23.001 0 0 0-2.459 3.377c-1.278 2.178-1.77 3.708-2.451 6.526-.742 3.066-1.707 5.917-2.582 7.628-1.694 3.312-4.454 6.238-8.438 8.943z" fill="#000"/><path d="m25.88 33.682-.854-1.188c4.528-3.226 6.035-5.628 7.365-7.747 1.059-1.687 2.024-4.242 2.583-6.837.678-3.145 1.233-5.037 2.554-7.287.03-.05.067-.118.115-.203a20.752 20.752 0 0 1 2.473-3.583c1.37-1.57 2.485-2.685 3.409-3.409l.907 1.148c-.838.657-1.918 1.74-3.208 3.219a19.374 19.374 0 0 0-2.3 3.336c-.053.096-.096.173-.13.229-1.22 2.078-1.74 3.867-2.385 6.857-.593 2.75-1.63 5.481-2.773 7.303-1.402 2.236-2.992 4.768-7.756 8.162zM27.383 9.76a.737.737 0 0 1-.687-.472.727.727 0 0 1 .2-.806l1.148-1.01a.735.735 0 0 1 1.147.87.73.73 0 0 1-.175.226l-1.149 1.01a.733.733 0 0 1-.485.182zM23.704 14.845a.736.736 0 0 1-.732-.678.727.727 0 0 1 .064-.355c.27-.613.585-1.205.943-1.771.333-.539.715-1.046 1.14-1.516a.735.735 0 0 1 1.275.432.729.729 0 0 1-.168.526 9.084 9.084 0 0 0-1.008 1.341c-.322.51-.604 1.041-.845 1.592a.731.731 0 0 1-.67.428z" fill="#000"/><path d="M45.108 6.087a8.936 8.936 0 0 0-4.83-4.146l.426-1.118c2.33.844 4.27 2.509 5.452 4.679l-1.048.585z" fill="#000"/><path d="M17.492 46.04c6.915-1.45 10.89-10.33 8.878-19.834-2.012-9.505-9.248-16.035-16.163-14.585C3.293 13.07-.682 21.95 1.33 31.455 3.342 40.96 10.578 47.49 17.492 46.04z" fill="#6F4E37"/><path d="M15.555 46.924c-2.898 0-5.82-1.225-8.41-3.56-3.158-2.848-5.45-7.024-6.454-11.76-1.004-4.734-.602-9.476 1.13-13.352 1.766-3.948 4.7-6.534 8.26-7.281 3.56-.748 7.294.438 10.512 3.34 3.159 2.849 5.451 7.025 6.455 11.76 1.004 4.734.602 9.476-1.13 13.352-1.766 3.948-4.7 6.534-8.26 7.282-.692.146-1.396.219-2.103.219zM12.17 12.08c-.61 0-1.217.063-1.814.188-3.13.658-5.729 2.974-7.316 6.523-1.62 3.622-1.99 8.076-1.044 12.538.947 4.463 3.094 8.388 6.046 11.05 2.892 2.608 6.21 3.682 9.34 3.025 3.13-.658 5.73-2.974 7.316-6.523 1.62-3.622 1.99-8.075 1.044-12.538-1.758-8.294-7.61-14.263-13.572-14.263z" fill="#000"/><path d="m19.543 45.909-1.842-.314c.921-5.364.653-9.187-.898-12.782-.626-1.45-1.465-2.744-2.355-4.114-.792-1.22-1.611-2.483-2.334-3.942-2.174-4.386-2.504-8.473-2.332-13.26l1.867.066c-.162 4.506.14 8.335 2.14 12.372.676 1.363 1.465 2.579 2.23 3.755.933 1.437 1.814 2.795 2.501 4.389 1.68 3.897 1.996 8.162 1.023 13.83z" fill="#963"/><path d="m17.89 46.248-1.446-.252c.785-4.48.622-8.253-.501-11.533-.691-2.019-2.285-4.863-3.546-6.852-1.605-2.53-2.442-4.096-3.165-6.689a25.124 25.124 0 0 1-.718-9.12l1.46.153a23.676 23.676 0 0 0-.046 4.47c.114 1.387.355 2.762.719 4.107.676 2.43 1.436 3.848 2.99 6.3 1.692 2.666 3.073 5.343 3.695 7.16 1.205 3.519 1.387 7.527.558 12.256z" fill="#000"/><path d="m21.113 45.31-1.452-.22c.834-5.479.155-8.23-.444-10.656-.477-1.93-1.644-4.4-3.123-6.609-1.793-2.676-2.77-4.392-3.469-6.903-.015-.055-.038-.13-.066-.223a20.665 20.665 0 0 1-.856-4.263c-.175-2.072-.201-3.645-.078-4.808l1.46.153c-.112 1.056-.084 2.581.081 4.533.127 1.346.395 2.676.8 3.967.032.105.058.19.075.252.646 2.319 1.57 3.938 3.275 6.483 1.568 2.341 2.812 4.984 3.327 7.07.631 2.559 1.347 5.458.47 11.224zM8.471 39.699a.737.737 0 0 1-.575-.276l-.954-1.193a.73.73 0 0 1 .931-1.101.732.732 0 0 1 .218.192l.954 1.193a.729.729 0 0 1-.574 1.185zM13.386 43.613a.735.735 0 0 1-.337-.081 13.46 13.46 0 0 1-1.729-1.027 10.57 10.57 0 0 1-1.463-1.21.729.729 0 0 1 .5-1.241.736.736 0 0 1 .517.189c.398.396.831.754 1.295 1.07.494.346 1.013.654 1.554.922a.732.732 0 0 1 .377.822.73.73 0 0 1-.715.557z" fill="#000"/><path d="m8.29 12.907-.508-1.084a10.191 10.191 0 0 1 7.171-.627l-.309 1.156a8.988 8.988 0 0 0-6.354.555zM16.16 46.838l-.054-1.194a9.573 9.573 0 0 0 2.776-.625 9.092 9.092 0 0 0 2.489-1.494l.755.93a10.198 10.198 0 0 1-2.796 1.673 10.761 10.761 0 0 1-3.17.71z" fill="#000"/></g><defs><clipPath id="a"><path fill="#fff" d="M0 0h48v47H0z"/></clipPath></defs></svg>